<svg width="64" height="99" viewBox="0 0 64 99" fill="none" xmlns="http://www.w3.org/2000/svg">
<path d="M13.3333 56C11.8667 56 10.6116 55.4782 9.568 54.4347C8.52444 53.3911 8.00178 52.1351 8 50.6667V13.3333C8 11.8667 8.52267 10.6116 9.568 9.568C10.6133 8.52444 11.8684 8.00178 13.3333 8H29.3333C30.0889 8 30.7227 8.256 31.2347 8.768C31.7467 9.28 32.0018 9.91289 32 10.6667C31.9982 11.4204 31.7422 12.0542 31.232 12.568C30.7218 13.0818 30.0889 13.3369 29.3333 13.3333H13.3333V50.6667H29.3333C30.0889 50.6667 30.7227 50.9227 31.2347 51.4347C31.7467 51.9467 32.0018 52.5796 32 53.3333C31.9982 54.0871 31.7422 54.7209 31.232 55.2347C30.7218 55.7484 30.0889 56.0036 29.3333 56H13.3333ZM45.8 34.6667H26.6667C25.9111 34.6667 25.2782 34.4107 24.768 33.8987C24.2578 33.3867 24.0018 32.7538 24 32C23.9982 31.2462 24.2542 30.6133 24.768 30.1013C25.2818 29.5893 25.9147 29.3333 26.6667 29.3333H45.8L40.8 24.3333C40.3111 23.8444 40.0667 23.2444 40.0667 22.5333C40.0667 21.8222 40.3111 21.2 40.8 20.6667C41.2889 20.1333 41.9111 19.8551 42.6667 19.832C43.4222 19.8089 44.0667 20.0649 44.6 20.6L54.1333 30.1333C54.6667 30.6667 54.9333 31.2889 54.9333 32C54.9333 32.7111 54.6667 33.3333 54.1333 33.8667L44.6 43.4C44.0667 43.9333 43.4338 44.1893 42.7013 44.168C41.9689 44.1467 41.3351 43.8684 40.8 43.3333C40.3111 42.8 40.0782 42.1671 40.1013 41.4347C40.1244 40.7022 40.3796 40.0907 40.8667 39.6L45.8 34.6667Z" fill="#506175"/>
<path d="M20.0463 76.5832C20.0532 75.5472 19.717 74.7547 19.0377 74.2058C18.3654 73.6569 17.4254 73.3825 16.2178 73.3825C15.3533 73.3825 14.5815 73.5197 13.9022 73.7942C13.2298 74.0617 12.681 74.4322 12.2556 74.9057C11.8371 75.3722 11.5798 75.9039 11.4837 76.5009C11.3945 77.0017 11.4391 77.434 11.6175 77.7976C11.8027 78.1612 12.0669 78.4666 12.4099 78.7136C12.7599 78.9537 13.1441 79.1561 13.5626 79.3208C13.9811 79.4786 14.3859 79.6089 14.777 79.7118L16.753 80.247C17.3911 80.4117 18.0395 80.6346 18.6981 80.916C19.3568 81.1973 19.9503 81.5678 20.4786 82.0274C21.0069 82.4871 21.4014 83.0566 21.6621 83.7358C21.9228 84.4151 21.9743 85.2281 21.8165 86.175C21.6106 87.3688 21.1269 88.4288 20.3654 89.3551C19.6038 90.2813 18.5986 91.012 17.3499 91.5472C16.1012 92.0823 14.6535 92.3499 13.0069 92.3499C11.4288 92.3499 10.1012 92.0995 9.02401 91.5986C7.95369 91.0978 7.1681 90.3877 6.66724 89.4683C6.16638 88.542 5.98799 87.4443 6.13208 86.175H9.33276C9.25729 86.9365 9.39451 87.5712 9.74443 88.0789C10.1012 88.5798 10.6021 88.9537 11.247 89.2007C11.8919 89.4408 12.6226 89.5609 13.4391 89.5609C14.3448 89.5609 15.1715 89.4202 15.9194 89.1389C16.6672 88.8508 17.2847 88.4528 17.7719 87.9451C18.259 87.4305 18.5575 86.8302 18.6672 86.1441C18.777 85.5197 18.6878 85.0086 18.3997 84.6106C18.1184 84.2127 17.693 83.8834 17.1235 83.6226C16.5609 83.3619 15.9194 83.1321 15.199 82.9331L12.8216 82.2539C11.2093 81.7942 9.98799 81.1184 9.1578 80.2264C8.32762 79.3345 8.02916 78.1544 8.26244 76.6861C8.46827 75.4717 8.97599 74.4117 9.78559 73.506C10.5952 72.6003 11.6038 71.8971 12.8113 71.3962C14.0189 70.8885 15.3293 70.6346 16.7427 70.6346C18.1698 70.6346 19.3842 70.8885 20.3859 71.3962C21.3877 71.9039 22.1286 72.6038 22.6089 73.4957C23.0892 74.3876 23.2573 75.4168 23.1132 76.5832H20.0463ZM28.9614 92.3499C27.9597 92.3499 27.0849 92.1647 26.3371 91.7942C25.5892 91.4168 25.0369 90.8714 24.6801 90.1578C24.3233 89.4443 24.2307 88.5695 24.4022 87.5334C24.5532 86.6415 24.8482 85.9074 25.2873 85.331C25.7333 84.7547 26.2753 84.2985 26.9134 83.9623C27.5515 83.6192 28.2444 83.3619 28.9923 83.1904C29.7401 83.0189 30.4949 82.8919 31.2564 82.8096C32.217 82.6998 32.9957 82.6072 33.5926 82.5317C34.1964 82.4563 34.6492 82.3396 34.9511 82.1818C35.253 82.0172 35.4348 81.7496 35.4966 81.3791V81.307C35.6407 80.4151 35.5103 79.7221 35.1055 79.2281C34.7075 78.7273 34.0146 78.4768 33.0266 78.4768C31.9974 78.4768 31.1329 78.7033 30.4331 79.1561C29.7401 79.6089 29.229 80.1166 28.8997 80.6792L26.1415 80.0206C26.6355 79.06 27.2633 78.2847 28.0249 77.6947C28.7933 77.0978 29.6338 76.6655 30.5463 76.3979C31.4588 76.1235 32.3919 75.9863 33.3456 75.9863C33.9768 75.9863 34.6321 76.0617 35.3113 76.2127C35.9906 76.3568 36.6081 76.6244 37.1638 77.0154C37.7264 77.4065 38.1449 77.9657 38.4194 78.693C38.6938 79.4134 38.735 80.3499 38.5429 81.5026L36.8036 92H33.7985L34.169 89.8388H34.0455C33.7847 90.2367 33.4211 90.6278 32.9545 91.012C32.4949 91.3962 31.9322 91.7153 31.2667 91.9691C30.6012 92.223 29.8328 92.3499 28.9614 92.3499ZM30.0111 89.8799C30.8688 89.8799 31.6269 89.7118 32.2856 89.3756C32.9511 89.0395 33.4897 88.6003 33.9014 88.0583C34.313 87.5094 34.5703 86.9228 34.6732 86.2985L35.0129 84.2607C34.8825 84.3705 34.6527 84.47 34.3233 84.5592C34.0009 84.6484 33.6372 84.7273 33.2324 84.7959C32.8276 84.8645 32.4297 84.9228 32.0386 84.9708C31.6544 85.0189 31.3353 85.0635 31.0815 85.1046C30.4777 85.1801 29.9117 85.307 29.3834 85.4854C28.8619 85.6638 28.4262 85.9211 28.0763 86.2573C27.7264 86.5866 27.5069 87.0257 27.4177 87.5746C27.2942 88.3362 27.476 88.9125 27.9631 89.3036C28.4571 89.6878 29.1398 89.8799 30.0111 89.8799ZM40.9022 92L43.5369 76.1921H46.6141L43.9794 92H40.9022ZM45.7187 73.7221C45.1835 73.7221 44.7307 73.5437 44.3602 73.187C43.9966 72.8233 43.8285 72.3911 43.8559 71.8902C43.8834 71.3825 44.0961 70.9503 44.494 70.5935C44.8919 70.2298 45.3551 70.048 45.8834 70.048C46.4185 70.048 46.8679 70.2298 47.2316 70.5935C47.5952 70.9503 47.7667 71.3825 47.7461 71.8902C47.7187 72.3911 47.506 72.8233 47.1081 73.187C46.717 73.5437 46.2539 73.7221 45.7187 73.7221ZM48.1192 92L50.7539 76.1921H53.7281L53.3062 78.7033H53.4708C53.8962 77.8525 54.5172 77.1835 55.3336 76.6964C56.1501 76.2024 57.0214 75.9554 57.9477 75.9554C58.1467 75.9554 58.3731 75.9623 58.6269 75.976C58.8808 75.9828 59.0866 76 59.2444 76.0274L58.7504 78.9708C58.6338 78.9365 58.4211 78.8988 58.1123 78.8576C57.8036 78.8096 57.4846 78.7856 57.1552 78.7856C56.4348 78.7856 55.7659 78.94 55.1484 79.2487C54.5309 79.5506 54.0129 79.9726 53.5943 80.5146C53.1758 81.0497 52.9048 81.6604 52.7813 82.3465L51.1964 92H48.1192Z" fill="#506175"/>
</svg>
