<svg width="180" height="180" viewBox="0 0 180 180" fill="none" xmlns="http://www.w3.org/2000/svg">
<rect x="0.353271" y="0.25" width="179.294" height="179.5" rx="4.75" fill="#ECF3F1" stroke="#B0B6B4" stroke-width="0.5"/>
<path d="M37.2692 141V126.455H42.184C43.3251 126.455 44.2579 126.661 44.9823 127.072C45.7115 127.48 46.2512 128.031 46.6016 128.727C46.952 129.423 47.1272 130.2 47.1272 131.057C47.1272 131.914 46.952 132.693 46.6016 133.393C46.256 134.094 45.7209 134.653 44.9965 135.07C44.2721 135.482 43.344 135.688 42.2124 135.688H38.6897V134.125H42.1556C42.9369 134.125 43.5642 133.99 44.0377 133.72C44.5112 133.45 44.8545 133.086 45.0675 132.626C45.2853 132.162 45.3942 131.639 45.3942 131.057C45.3942 130.474 45.2853 129.954 45.0675 129.494C44.8545 129.035 44.5088 128.675 44.0306 128.415C43.5524 128.15 42.9179 128.017 42.1272 128.017H39.0306V141H37.2692ZM49.7373 141V130.091H51.3566V131.739H51.4702C51.6691 131.199 52.0289 130.761 52.5498 130.425C53.0706 130.089 53.6577 129.92 54.3111 129.92C54.4342 129.92 54.5881 129.923 54.7728 129.928C54.9574 129.932 55.0971 129.939 55.1918 129.949V131.653C55.135 131.639 55.0048 131.618 54.8012 131.589C54.6023 131.556 54.3916 131.54 54.1691 131.54C53.6388 131.54 53.1653 131.651 52.7486 131.874C52.3367 132.091 52.01 132.394 51.7685 132.783C51.5318 133.166 51.4134 133.604 51.4134 134.097V141H49.7373ZM61.2785 141.227C60.2936 141.227 59.4295 140.993 58.6861 140.524C57.9475 140.055 57.3699 139.4 56.9532 138.557C56.5413 137.714 56.3353 136.729 56.3353 135.602C56.3353 134.466 56.5413 133.474 56.9532 132.626C57.3699 131.779 57.9475 131.121 58.6861 130.652C59.4295 130.183 60.2936 129.949 61.2785 129.949C62.2633 129.949 63.1251 130.183 63.8637 130.652C64.6071 131.121 65.1847 131.779 65.5967 132.626C66.0133 133.474 66.2217 134.466 66.2217 135.602C66.2217 136.729 66.0133 137.714 65.5967 138.557C65.1847 139.4 64.6071 140.055 63.8637 140.524C63.1251 140.993 62.2633 141.227 61.2785 141.227ZM61.2785 139.722C62.0266 139.722 62.6421 139.53 63.1251 139.146C63.608 138.763 63.9655 138.259 64.1975 137.634C64.4295 137.009 64.5455 136.331 64.5455 135.602C64.5455 134.873 64.4295 134.194 64.1975 133.564C63.9655 132.934 63.608 132.425 63.1251 132.037C62.6421 131.649 62.0266 131.455 61.2785 131.455C60.5304 131.455 59.9148 131.649 59.4319 132.037C58.9489 132.425 58.5914 132.934 58.3594 133.564C58.1274 134.194 58.0114 134.873 58.0114 135.602C58.0114 136.331 58.1274 137.009 58.3594 137.634C58.5914 138.259 58.9489 138.763 59.4319 139.146C59.9148 139.53 60.5304 139.722 61.2785 139.722ZM73.6382 130.091V131.511H67.7575V130.091H73.6382ZM69.5189 141V128.585C69.5189 127.96 69.6657 127.439 69.9592 127.023C70.2528 126.606 70.6339 126.294 71.1027 126.085C71.5714 125.877 72.0662 125.773 72.5871 125.773C72.999 125.773 73.3352 125.806 73.5956 125.872C73.856 125.938 74.0501 126 74.178 126.057L73.695 127.506C73.6098 127.477 73.4914 127.442 73.3399 127.399C73.1931 127.357 72.999 127.335 72.7575 127.335C72.2035 127.335 71.8034 127.475 71.5572 127.754C71.3158 128.034 71.195 128.443 71.195 128.983V141H69.5189ZM75.9873 141V130.091H77.6634V141H75.9873ZM76.8395 128.273C76.5128 128.273 76.2311 128.161 75.9944 127.939C75.7624 127.716 75.6464 127.449 75.6464 127.136C75.6464 126.824 75.7624 126.556 75.9944 126.334C76.2311 126.111 76.5128 126 76.8395 126C77.1663 126 77.4456 126.111 77.6776 126.334C77.9144 126.556 78.0327 126.824 78.0327 127.136C78.0327 127.449 77.9144 127.716 77.6776 127.939C77.4456 128.161 77.1663 128.273 76.8395 128.273ZM88.4606 132.534L86.955 132.96C86.8603 132.709 86.7206 132.465 86.5359 132.229C86.356 131.987 86.1098 131.788 85.7973 131.632C85.4848 131.476 85.0847 131.398 84.597 131.398C83.9294 131.398 83.373 131.552 82.928 131.859C82.4876 132.162 82.2675 132.548 82.2675 133.017C82.2675 133.434 82.419 133.763 82.722 134.004C83.025 134.246 83.4985 134.447 84.1425 134.608L85.7618 135.006C86.7372 135.242 87.464 135.605 87.9422 136.092C88.4204 136.575 88.6595 137.198 88.6595 137.96C88.6595 138.585 88.4796 139.144 88.1197 139.636C87.7646 140.129 87.2675 140.517 86.6283 140.801C85.9891 141.085 85.2457 141.227 84.3981 141.227C83.2855 141.227 82.3645 140.986 81.6354 140.503C80.9062 140.02 80.4445 139.314 80.2504 138.386L81.8413 137.989C81.9928 138.576 82.2793 139.016 82.7007 139.31C83.1268 139.603 83.6832 139.75 84.3697 139.75C85.151 139.75 85.7712 139.584 86.2305 139.253C86.6945 138.917 86.9266 138.514 86.9266 138.045C86.9266 137.667 86.794 137.349 86.5288 137.094C86.2637 136.833 85.8565 136.639 85.3072 136.511L83.4891 136.085C82.49 135.848 81.7561 135.482 81.2873 134.984C80.8233 134.482 80.5913 133.855 80.5913 133.102C80.5913 132.487 80.7641 131.942 81.1098 131.469C81.4602 130.995 81.936 130.624 82.5373 130.354C83.1434 130.084 83.83 129.949 84.597 129.949C85.6766 129.949 86.5241 130.186 87.1396 130.659C87.7599 131.133 88.2002 131.758 88.4606 132.534ZM98.9099 132.534L97.4042 132.96C97.3095 132.709 97.1698 132.465 96.9851 132.229C96.8052 131.987 96.559 131.788 96.2465 131.632C95.934 131.476 95.5339 131.398 95.0462 131.398C94.3786 131.398 93.8223 131.552 93.3772 131.859C92.9369 132.162 92.7167 132.548 92.7167 133.017C92.7167 133.434 92.8682 133.763 93.1712 134.004C93.4743 134.246 93.9477 134.447 94.5917 134.608L96.211 135.006C97.1864 135.242 97.9132 135.605 98.3914 136.092C98.8696 136.575 99.1087 137.198 99.1087 137.96C99.1087 138.585 98.9288 139.144 98.569 139.636C98.2138 140.129 97.7167 140.517 97.0775 140.801C96.4383 141.085 95.6949 141.227 94.8474 141.227C93.7347 141.227 92.8137 140.986 92.0846 140.503C91.3554 140.02 90.8938 139.314 90.6996 138.386L92.2905 137.989C92.4421 138.576 92.7285 139.016 93.1499 139.31C93.5761 139.603 94.1324 139.75 94.819 139.75C95.6002 139.75 96.2205 139.584 96.6797 139.253C97.1438 138.917 97.3758 138.514 97.3758 138.045C97.3758 137.667 97.2432 137.349 96.978 137.094C96.7129 136.833 96.3057 136.639 95.7565 136.511L93.9383 136.085C92.9392 135.848 92.2053 135.482 91.7366 134.984C91.2726 134.482 91.0405 133.855 91.0405 133.102C91.0405 132.487 91.2134 131.942 91.559 131.469C91.9094 130.995 92.3852 130.624 92.9866 130.354C93.5926 130.084 94.2792 129.949 95.0462 129.949C96.1258 129.949 96.9733 130.186 97.5888 130.659C98.2091 131.133 98.6494 131.758 98.9099 132.534ZM101.632 141V130.091H103.308V141H101.632ZM102.484 128.273C102.157 128.273 101.876 128.161 101.639 127.939C101.407 127.716 101.291 127.449 101.291 127.136C101.291 126.824 101.407 126.556 101.639 126.334C101.876 126.111 102.157 126 102.484 126C102.811 126 103.09 126.111 103.322 126.334C103.559 126.556 103.677 126.824 103.677 127.136C103.677 127.449 103.559 127.716 103.322 127.939C103.09 128.161 102.811 128.273 102.484 128.273ZM110.81 141.227C109.825 141.227 108.961 140.993 108.217 140.524C107.479 140.055 106.901 139.4 106.484 138.557C106.073 137.714 105.867 136.729 105.867 135.602C105.867 134.466 106.073 133.474 106.484 132.626C106.901 131.779 107.479 131.121 108.217 130.652C108.961 130.183 109.825 129.949 110.81 129.949C111.795 129.949 112.656 130.183 113.395 130.652C114.138 131.121 114.716 131.779 115.128 132.626C115.545 133.474 115.753 134.466 115.753 135.602C115.753 136.729 115.545 137.714 115.128 138.557C114.716 139.4 114.138 140.055 113.395 140.524C112.656 140.993 111.795 141.227 110.81 141.227ZM110.81 139.722C111.558 139.722 112.173 139.53 112.656 139.146C113.139 138.763 113.497 138.259 113.729 137.634C113.961 137.009 114.077 136.331 114.077 135.602C114.077 134.873 113.961 134.194 113.729 133.564C113.497 132.934 113.139 132.425 112.656 132.037C112.173 131.649 111.558 131.455 110.81 131.455C110.062 131.455 109.446 131.649 108.963 132.037C108.48 132.425 108.123 132.934 107.891 133.564C107.659 134.194 107.543 134.873 107.543 135.602C107.543 136.331 107.659 137.009 107.891 137.634C108.123 138.259 108.48 138.763 108.963 139.146C109.446 139.53 110.062 139.722 110.81 139.722ZM119.988 134.438V141H118.311V130.091H119.931V131.795H120.073C120.329 131.241 120.717 130.796 121.238 130.46C121.758 130.119 122.431 129.949 123.255 129.949C123.993 129.949 124.64 130.1 125.194 130.403C125.748 130.702 126.178 131.156 126.486 131.767C126.794 132.373 126.948 133.14 126.948 134.068V141H125.272V134.182C125.272 133.325 125.049 132.657 124.604 132.179C124.159 131.696 123.548 131.455 122.772 131.455C122.237 131.455 121.758 131.571 121.337 131.803C120.92 132.035 120.591 132.373 120.35 132.818C120.108 133.263 119.988 133.803 119.988 134.438ZM133.221 141.256C132.53 141.256 131.902 141.125 131.339 140.865C130.775 140.6 130.328 140.219 129.997 139.722C129.665 139.22 129.499 138.614 129.499 137.903C129.499 137.278 129.622 136.772 129.869 136.384C130.115 135.991 130.444 135.683 130.856 135.46C131.268 135.238 131.722 135.072 132.22 134.963C132.721 134.849 133.226 134.759 133.732 134.693C134.395 134.608 134.933 134.544 135.345 134.501C135.761 134.454 136.064 134.376 136.254 134.267C136.448 134.158 136.545 133.969 136.545 133.699V133.642C136.545 132.941 136.353 132.397 135.97 132.009C135.591 131.62 135.015 131.426 134.244 131.426C133.443 131.426 132.816 131.601 132.362 131.952C131.907 132.302 131.587 132.676 131.403 133.074L129.812 132.506C130.096 131.843 130.475 131.327 130.948 130.957C131.426 130.583 131.947 130.323 132.511 130.176C133.079 130.025 133.638 129.949 134.187 129.949C134.537 129.949 134.94 129.991 135.394 130.077C135.854 130.157 136.296 130.325 136.722 130.581C137.153 130.837 137.511 131.223 137.795 131.739C138.079 132.255 138.221 132.946 138.221 133.812V141H136.545V139.523H136.46C136.346 139.759 136.157 140.013 135.891 140.283C135.626 140.553 135.273 140.782 134.833 140.972C134.393 141.161 133.855 141.256 133.221 141.256ZM133.477 139.75C134.14 139.75 134.698 139.62 135.153 139.359C135.612 139.099 135.958 138.763 136.19 138.351C136.426 137.939 136.545 137.506 136.545 137.051V135.517C136.474 135.602 136.318 135.68 136.076 135.751C135.839 135.818 135.565 135.877 135.252 135.929C134.944 135.976 134.644 136.019 134.35 136.057C134.061 136.09 133.827 136.118 133.647 136.142C133.211 136.199 132.804 136.291 132.425 136.419C132.051 136.542 131.748 136.729 131.516 136.98C131.289 137.226 131.175 137.562 131.175 137.989C131.175 138.571 131.391 139.011 131.822 139.31C132.257 139.603 132.809 139.75 133.477 139.75ZM142.956 126.455V141H141.28V126.455H142.956Z" fill="#506175"/>
<path d="M90.2063 77.8571C98.7184 77.8571 105.617 70.9504 105.617 62.4286C105.617 53.9067 98.7184 47 90.2063 47C81.6942 47 74.7955 53.9067 74.7955 62.4286C74.7955 70.9504 81.6942 77.8571 90.2063 77.8571ZM75.7586 98.1071C75.7586 99.7103 77.0469 101 78.6482 101C80.2495 101 81.5377 99.7103 81.5377 98.1071C81.5377 96.504 80.2495 95.2143 78.6482 95.2143C77.0469 95.2143 75.7586 96.504 75.7586 98.1071ZM101.764 81.7866V87.6929C106.159 88.5848 109.47 92.4902 109.47 97.1429V102.169C109.47 103.085 108.82 103.881 107.917 104.062L104.04 104.833C103.522 104.942 103.017 104.604 102.908 104.074L102.535 102.181C102.427 101.663 102.764 101.145 103.294 101.048L105.617 100.578V97.1429C105.617 89.5732 94.0591 89.296 94.0591 97.3719V100.59L96.3827 101.06C96.9004 101.169 97.2376 101.675 97.1412 102.193L96.768 104.086C96.6596 104.604 96.154 104.942 95.6363 104.845L91.8799 104.339C90.9287 104.206 90.2184 103.399 90.2184 102.422V97.1429C90.2184 92.4902 93.5293 88.5969 97.9238 87.6929V82.2446C97.6589 82.329 97.3941 82.3772 97.1292 82.4737C94.962 83.233 92.6384 83.6549 90.2184 83.6549C87.7984 83.6549 85.4747 83.233 83.3076 82.4737C82.4166 82.1603 81.5136 81.9674 80.5866 81.8469V91.6826C83.3678 92.5143 85.4025 95.0696 85.4025 98.1192C85.4025 101.844 82.3805 104.869 78.6602 104.869C74.9399 104.869 71.918 101.844 71.918 98.1192C71.918 95.0696 73.9527 92.5143 76.7339 91.6826V81.9915C69.0766 83.2812 63.2373 89.8866 63.2373 97.9143V103.314C63.2373 106.292 65.6573 108.714 68.6311 108.714H111.782C114.755 108.714 117.175 106.292 117.175 103.314V97.9143C117.175 89.2357 110.337 82.2085 101.764 81.7866Z" fill="#506175"/>
</svg>
