<?xml version="1.0" encoding="UTF-8"?>
<svg xmlns="http://www.w3.org/2000/svg" xmlns:xlink="http://www.w3.org/1999/xlink" width="45px" height="70px" viewBox="0 0 45 69" version="1.1">
<g id="surface1">
<path style=" stroke:none;fill-rule:nonzero;fill:rgb(31.372549%,38.039216%,45.882353%);fill-opacity:1;" d="M 9.375 39.03125 C 8.34375 39.03125 7.460938 38.667969 6.726562 37.9375 C 5.992188 37.210938 5.625 36.335938 5.625 35.3125 L 5.625 9.292969 C 5.625 8.269531 5.992188 7.394531 6.726562 6.667969 C 7.460938 5.941406 8.34375 5.578125 9.375 5.574219 L 20.625 5.574219 C 21.15625 5.574219 21.601562 5.753906 21.960938 6.109375 C 22.320312 6.46875 22.5 6.910156 22.5 7.433594 C 22.5 7.960938 22.320312 8.402344 21.960938 8.757812 C 21.601562 9.117188 21.15625 9.296875 20.625 9.292969 L 9.375 9.292969 L 9.375 35.3125 L 20.625 35.3125 C 21.15625 35.3125 21.601562 35.492188 21.960938 35.847656 C 22.320312 36.207031 22.5 36.644531 22.5 37.171875 C 22.5 37.695312 22.320312 38.140625 21.960938 38.496094 C 21.601562 38.855469 21.15625 39.03125 20.625 39.03125 Z M 32.203125 24.160156 L 18.75 24.160156 C 18.21875 24.160156 17.773438 23.984375 17.414062 23.625 C 17.054688 23.269531 16.875 22.828125 16.875 22.304688 C 16.875 21.777344 17.054688 21.335938 17.414062 20.980469 C 17.777344 20.621094 18.222656 20.445312 18.75 20.445312 L 32.203125 20.445312 L 28.6875 16.960938 C 28.34375 16.617188 28.171875 16.199219 28.171875 15.703125 C 28.171875 15.210938 28.34375 14.777344 28.6875 14.402344 C 29.03125 14.03125 29.46875 13.839844 30 13.824219 C 30.53125 13.804688 30.984375 13.984375 31.359375 14.359375 L 38.0625 21.003906 C 38.4375 21.375 38.625 21.808594 38.625 22.304688 C 38.625 22.796875 38.4375 23.230469 38.0625 23.605469 L 31.359375 30.25 C 30.984375 30.621094 30.539062 30.796875 30.023438 30.785156 C 29.507812 30.769531 29.0625 30.574219 28.6875 30.203125 C 28.34375 29.832031 28.179688 29.390625 28.195312 28.878906 C 28.210938 28.367188 28.390625 27.941406 28.734375 27.601562 Z M 32.203125 24.160156 "/>
<path style=" stroke:none;fill-rule:nonzero;fill:rgb(31.372549%,38.039216%,45.882353%);fill-opacity:1;" d="M 14.09375 53.375 C 14.101562 52.652344 13.863281 52.101562 13.386719 51.71875 C 12.914062 51.335938 12.253906 51.144531 11.402344 51.144531 C 10.796875 51.144531 10.253906 51.242188 9.773438 51.433594 C 9.300781 51.617188 8.917969 51.878906 8.617188 52.207031 C 8.324219 52.53125 8.140625 52.902344 8.074219 53.320312 C 8.011719 53.667969 8.042969 53.96875 8.167969 54.222656 C 8.296875 54.476562 8.484375 54.6875 8.726562 54.859375 C 8.972656 55.027344 9.242188 55.167969 9.535156 55.285156 C 9.832031 55.394531 10.113281 55.484375 10.390625 55.558594 L 11.78125 55.929688 C 12.226562 56.042969 12.683594 56.199219 13.148438 56.394531 C 13.609375 56.59375 14.027344 56.851562 14.398438 57.171875 C 14.769531 57.492188 15.046875 57.886719 15.230469 58.359375 C 15.414062 58.835938 15.449219 59.402344 15.339844 60.0625 C 15.195312 60.894531 14.855469 61.632812 14.320312 62.277344 C 13.785156 62.921875 13.078125 63.433594 12.199219 63.804688 C 11.320312 64.179688 10.304688 64.363281 9.144531 64.363281 C 8.035156 64.363281 7.101562 64.191406 6.34375 63.839844 C 5.59375 63.492188 5.039062 62.996094 4.6875 62.355469 C 4.335938 61.710938 4.210938 60.945312 4.3125 60.0625 L 6.5625 60.0625 C 6.507812 60.59375 6.605469 61.035156 6.851562 61.386719 C 7.101562 61.738281 7.453125 61.996094 7.90625 62.171875 C 8.363281 62.335938 8.875 62.421875 9.449219 62.421875 C 10.085938 62.421875 10.667969 62.324219 11.191406 62.128906 C 11.71875 61.925781 12.152344 61.648438 12.496094 61.296875 C 12.839844 60.9375 13.046875 60.519531 13.125 60.039062 C 13.203125 59.605469 13.140625 59.25 12.9375 58.972656 C 12.738281 58.695312 12.441406 58.464844 12.039062 58.28125 C 11.644531 58.101562 11.191406 57.941406 10.6875 57.800781 L 9.015625 57.328125 C 7.882812 57.007812 7.023438 56.535156 6.4375 55.914062 C 5.855469 55.292969 5.644531 54.472656 5.808594 53.449219 C 5.953125 52.601562 6.3125 51.863281 6.878906 51.230469 C 7.449219 50.601562 8.160156 50.109375 9.007812 49.761719 C 9.855469 49.40625 10.777344 49.230469 11.773438 49.230469 C 12.777344 49.230469 13.628906 49.40625 14.332031 49.761719 C 15.039062 50.113281 15.558594 50.601562 15.898438 51.222656 C 16.234375 51.847656 16.351562 52.5625 16.25 53.375 Z M 20.363281 64.363281 C 19.660156 64.363281 19.042969 64.234375 18.519531 63.976562 C 17.992188 63.714844 17.605469 63.335938 17.351562 62.835938 C 17.101562 62.339844 17.039062 61.730469 17.15625 61.007812 C 17.265625 60.386719 17.472656 59.875 17.78125 59.472656 C 18.09375 59.070312 18.476562 58.753906 18.921875 58.519531 C 19.371094 58.28125 19.859375 58.101562 20.386719 57.980469 C 20.910156 57.863281 21.441406 57.773438 21.976562 57.714844 C 22.652344 57.640625 23.199219 57.574219 23.621094 57.523438 C 24.042969 57.46875 24.363281 57.386719 24.574219 57.277344 C 24.789062 57.164062 24.914062 56.976562 24.957031 56.71875 L 24.957031 56.667969 C 25.058594 56.046875 24.96875 55.5625 24.683594 55.21875 C 24.402344 54.871094 23.917969 54.695312 23.222656 54.695312 C 22.5 54.695312 21.890625 54.855469 21.398438 55.167969 C 20.910156 55.484375 20.550781 55.839844 20.320312 56.230469 L 18.378906 55.773438 C 18.726562 55.101562 19.167969 54.5625 19.703125 54.152344 C 20.246094 53.734375 20.835938 53.433594 21.476562 53.246094 C 22.121094 53.054688 22.777344 52.960938 23.445312 52.960938 C 23.890625 52.960938 24.351562 53.011719 24.828125 53.117188 C 25.304688 53.21875 25.738281 53.40625 26.128906 53.675781 C 26.527344 53.949219 26.820312 54.339844 27.011719 54.847656 C 27.207031 55.347656 27.234375 56 27.101562 56.804688 L 25.878906 64.121094 L 23.765625 64.121094 L 24.023438 62.613281 L 23.9375 62.613281 C 23.753906 62.890625 23.5 63.164062 23.171875 63.433594 C 22.847656 63.699219 22.453125 63.921875 21.984375 64.101562 C 21.515625 64.277344 20.976562 64.363281 20.363281 64.363281 Z M 21.101562 62.644531 C 21.703125 62.644531 22.238281 62.527344 22.699219 62.292969 C 23.167969 62.058594 23.546875 61.75 23.835938 61.375 C 24.125 60.992188 24.308594 60.582031 24.378906 60.148438 L 24.617188 58.726562 C 24.527344 58.804688 24.363281 58.871094 24.132812 58.933594 C 23.90625 58.996094 23.652344 59.050781 23.367188 59.101562 C 23.082031 59.148438 22.800781 59.1875 22.527344 59.222656 C 22.257812 59.253906 22.03125 59.285156 21.855469 59.316406 C 21.429688 59.367188 21.03125 59.457031 20.660156 59.582031 C 20.292969 59.703125 19.988281 59.882812 19.742188 60.117188 C 19.496094 60.347656 19.339844 60.652344 19.277344 61.035156 C 19.191406 61.566406 19.320312 61.96875 19.660156 62.242188 C 20.007812 62.507812 20.488281 62.644531 21.101562 62.644531 Z M 28.757812 64.121094 L 30.613281 53.105469 L 32.777344 53.105469 L 30.921875 64.121094 Z M 32.144531 51.382812 C 31.769531 51.382812 31.453125 51.257812 31.191406 51.007812 C 30.933594 50.753906 30.816406 50.453125 30.835938 50.105469 C 30.855469 49.75 31.003906 49.449219 31.285156 49.203125 C 31.566406 48.949219 31.890625 48.820312 32.261719 48.820312 C 32.636719 48.820312 32.953125 48.949219 33.210938 49.203125 C 33.464844 49.449219 33.585938 49.75 33.570312 50.105469 C 33.550781 50.453125 33.402344 50.753906 33.121094 51.007812 C 32.847656 51.257812 32.523438 51.382812 32.144531 51.382812 Z M 33.832031 64.121094 L 35.6875 53.105469 L 37.777344 53.105469 L 37.480469 54.855469 L 37.597656 54.855469 C 37.894531 54.261719 38.332031 53.792969 38.90625 53.453125 C 39.480469 53.109375 40.09375 52.9375 40.746094 52.9375 C 40.882812 52.9375 41.042969 52.945312 41.222656 52.953125 C 41.402344 52.957031 41.546875 52.96875 41.65625 52.988281 L 41.308594 55.039062 C 41.226562 55.015625 41.078125 54.988281 40.859375 54.960938 C 40.644531 54.929688 40.417969 54.910156 40.1875 54.910156 C 39.679688 54.910156 39.210938 55.019531 38.777344 55.234375 C 38.34375 55.445312 37.976562 55.738281 37.683594 56.117188 C 37.390625 56.488281 37.199219 56.914062 37.113281 57.394531 L 35.996094 64.121094 Z M 33.832031 64.121094 "/>
</g>
</svg>
