<svg width="71" height="88" viewBox="0 0 71 88" fill="none" xmlns="http://www.w3.org/2000/svg">
<path d="M20.1332 34.6667L27.8666 42.4C28.3555 42.8889 28.5999 43.5111 28.5999 44.2667C28.5999 45.0223 28.3555 45.6445 27.8666 46.1334C27.3777 46.6222 26.7555 46.8667 25.9999 46.8667C25.2444 46.8667 24.6221 46.6222 24.1332 46.1334L11.8666 33.8667C11.5999 33.6 11.4106 33.3111 11.2986 33C11.1866 32.6889 11.1324 32.3556 11.1359 32C11.1395 31.6445 11.1955 31.3111 11.3039 31C11.4124 30.6889 11.6008 30.4 11.8692 30.1334L24.1359 17.8667C24.6248 17.3778 25.247 17.1334 26.0026 17.1334C26.7581 17.1334 27.3804 17.3778 27.8692 17.8667C28.3581 18.3556 28.6026 18.9778 28.6026 19.7334C28.6026 20.4889 28.3581 21.1111 27.8692 21.6L20.1332 29.3334H55.3332C56.0888 29.3334 56.7226 29.5894 57.2346 30.1014C57.7466 30.6134 58.0017 31.2463 57.9999 32C57.9981 32.7538 57.7421 33.3876 57.2319 33.9014C56.7217 34.4151 56.0888 34.6702 55.3332 34.6667H20.1332Z" fill="#506175"/>
<path d="M5.41187 64.0073L8.0036 78.6615H8.20567L15.6294 64.0073H18.5638L9.10179 82H5.96536L2.47751 64.0073H5.41187ZM22.3569 82.2724C21.0742 82.2724 20.0024 81.9795 19.1414 81.3938C18.2804 80.8022 17.6742 79.9764 17.3228 78.9163C16.9773 77.8503 16.9187 76.6116 17.1471 75.2C17.3697 73.8178 17.8177 72.6112 18.4913 71.5804C19.1707 70.5496 20.02 69.7501 21.0391 69.1819C22.0641 68.6138 23.2033 68.3297 24.4567 68.3297C25.7393 68.3297 26.8082 68.6255 27.6634 69.2171C28.5244 69.8086 29.1306 70.6374 29.482 71.7034C29.8334 72.7694 29.8949 74.011 29.6665 75.4284C29.4439 76.799 28.99 77.9997 28.3047 79.0305C27.6253 80.0555 26.776 80.852 25.7569 81.4202C24.7378 81.9883 23.6045 82.2724 22.3569 82.2724ZM22.5063 80.0672C23.3497 80.0672 24.0847 79.8446 24.7114 79.3995C25.344 78.9544 25.8594 78.3628 26.2577 77.6248C26.656 76.8868 26.9283 76.0786 27.0747 75.2C27.2095 74.3508 27.2065 73.5747 27.066 72.8719C26.9312 72.1632 26.6384 71.595 26.1874 71.1675C25.7364 70.7399 25.1097 70.5261 24.3073 70.5261C23.4639 70.5261 22.723 70.7516 22.0846 71.2026C21.452 71.6477 20.9366 72.2422 20.5383 72.9861C20.1459 73.7299 19.8794 74.5411 19.7388 75.4197C19.6041 76.2631 19.6041 77.0391 19.7388 77.7478C19.8736 78.4507 20.1664 79.0129 20.6174 79.4346C21.0684 79.8563 21.698 80.0672 22.5063 80.0672ZM37.132 64.0073L34.1449 82H31.518L34.5051 64.0073H37.132ZM46.2271 68.5055L45.8845 70.614H38.5135L38.8561 68.5055H46.2271ZM41.36 65.2724H43.9868L41.8608 78.0377C41.7788 78.5473 41.7934 78.9309 41.9047 79.1886C42.016 79.4405 42.1858 79.6133 42.4142 79.707C42.6485 79.7948 42.9092 79.8388 43.1961 79.8388C43.407 79.8388 43.5915 79.8241 43.7496 79.7948C43.9078 79.7656 44.0337 79.7421 44.1274 79.7246L44.268 81.8946C44.0923 81.9531 43.8551 82.0117 43.5564 82.0703C43.2635 82.1347 42.9062 82.1699 42.4845 82.1757C41.7934 82.1874 41.1696 82.0644 40.6132 81.8067C40.0568 81.5432 39.6409 81.1449 39.3657 80.6119C39.0904 80.073 39.023 79.3966 39.1636 78.5824L41.36 65.2724ZM50.7758 82.2987C49.9207 82.2987 49.174 82.1406 48.5355 81.8243C47.8971 81.5022 47.4256 81.0365 47.1211 80.4274C46.8165 79.8183 46.7374 79.0715 46.8839 78.1871C47.0127 77.4257 47.2646 76.799 47.6394 76.307C48.0201 75.815 48.4828 75.4255 49.0275 75.1385C49.5722 74.8457 50.1638 74.626 50.8022 74.4796C51.4406 74.3332 52.0849 74.2248 52.735 74.1545C53.555 74.0608 54.2198 73.9818 54.7293 73.9173C55.2447 73.8529 55.6313 73.7533 55.889 73.6186C56.1467 73.4781 56.3019 73.2496 56.3546 72.9334V72.8719C56.4776 72.1104 56.3664 71.5189 56.0208 71.0972C55.6811 70.6696 55.0895 70.4558 54.2461 70.4558C53.3676 70.4558 52.6296 70.6491 52.0322 71.0357C51.4406 71.4222 51.0043 71.8557 50.7231 72.3359L48.3686 71.7737C48.7903 70.9537 49.3262 70.2918 49.9764 69.7881C50.6323 69.2786 51.3498 68.9096 52.1288 68.6812C52.9078 68.4469 53.7043 68.3297 54.5185 68.3297C55.0573 68.3297 55.6167 68.3942 56.1965 68.523C56.7763 68.646 57.3035 68.8744 57.7779 69.2083C58.2582 69.5421 58.6154 70.0195 58.8497 70.6403C59.084 71.2553 59.1192 72.0548 58.9552 73.0388L57.4704 82H54.905L55.2213 80.155H55.1159C54.8933 80.4947 54.5829 80.8286 54.1846 81.1566C53.7922 81.4846 53.3119 81.7569 52.7438 81.9736C52.1757 82.1904 51.5197 82.2987 50.7758 82.2987ZM51.672 80.1902C52.4041 80.1902 53.0513 80.0467 53.6136 79.7597C54.1817 79.4727 54.6415 79.0979 54.9929 78.6352C55.3443 78.1666 55.5639 77.6658 55.6518 77.1328L55.9417 75.3933C55.8304 75.487 55.6342 75.5719 55.3531 75.6481C55.0778 75.7242 54.7674 75.7916 54.4218 75.8501C54.0763 75.9087 53.7366 75.9585 53.4027 75.9995C53.0747 76.0405 52.8024 76.0786 52.5857 76.1137C52.0702 76.1781 51.587 76.2865 51.1361 76.4388C50.6909 76.5911 50.319 76.8107 50.0203 77.0977C49.7216 77.3788 49.5342 77.7537 49.458 78.2222C49.3526 78.8724 49.5078 79.3643 49.9237 79.6982C50.3454 80.0262 50.9281 80.1902 51.672 80.1902ZM60.9692 82L63.2183 68.5055H65.7573L65.3971 70.6491H65.5377C65.9008 69.9229 66.4309 69.3518 67.1279 68.9359C67.8249 68.5142 68.5687 68.3034 69.3594 68.3034C69.5292 68.3034 69.7225 68.3092 69.9392 68.321C70.1559 68.3268 70.3317 68.3415 70.4664 68.3649L70.0447 70.8775C69.9451 70.8483 69.7635 70.816 69.5 70.7809C69.2364 70.7399 68.964 70.7194 68.6829 70.7194C68.0679 70.7194 67.4969 70.8512 66.9697 71.1148C66.4426 71.3725 66.0004 71.7327 65.6431 72.1954C65.2858 72.6522 65.0545 73.1735 64.9491 73.7592L63.5961 82H60.9692Z" fill="#506175"/>
</svg>
