<svg width="70" height="91" viewBox="0 0 70 91" fill="none" xmlns="http://www.w3.org/2000/svg">
<path d="M10.6667 53.3334V28.3334L5.86675 32L2.66675 27.7334L32.0001 5.33337L61.3334 27.7334L58.1334 31.9334L53.3334 28.3334V30.0667C52.489 29.8 51.6223 29.6116 50.7334 29.5014C49.8445 29.3912 48.9334 29.3352 48.0001 29.3334C42.8001 29.3334 38.3894 31.1449 34.7681 34.768C31.1467 38.3912 29.3352 42.8018 29.3334 48C29.3334 48.8889 29.4001 49.7778 29.5334 50.6667C29.6667 51.5556 29.8667 52.4445 30.1334 53.3334H10.6667ZM45.3334 61.3334H34.6667V57.3334H38.4668C37.3112 56.1334 36.3894 54.7334 35.7014 53.1334C35.0134 51.5334 34.6685 49.8223 34.6667 48C34.6667 44.8 35.6783 41.9778 37.7014 39.5334C39.7245 37.0889 42.2685 35.5556 45.3334 34.9334V39.0667C43.3779 39.6445 41.7779 40.7449 40.5334 42.368C39.289 43.9911 38.6667 45.8685 38.6667 48C38.6667 49.2889 38.9005 50.4889 39.3681 51.6C39.8356 52.7112 40.4907 53.6889 41.3334 54.5334V50.6667H45.3334V61.3334ZM50.6667 61.0667V56.9334C52.6667 56.3112 54.2783 55.1885 55.5014 53.5654C56.7245 51.9423 57.3352 50.0872 57.3334 48C57.3334 46.7112 57.1005 45.5112 56.6348 44.4C56.169 43.2889 55.513 42.3112 54.6667 41.4667V45.3334H50.6667V34.6667H61.3334V38.6667H57.5334C58.689 39.8667 59.6116 41.2667 60.3014 42.8667C60.9912 44.4667 61.3352 46.1778 61.3334 48C61.3334 51.2 60.3228 54.0223 58.3014 56.4667C56.2801 58.9112 53.7352 60.4445 50.6667 61.0667Z" fill="#506175"/>
<path d="M0.852194 85L3.83927 67.0073H6.55399L5.25373 74.8264H14.2237L15.524 67.0073H18.2475L15.2604 85H12.5369L13.8372 77.1545H4.86717L3.56692 85H0.852194ZM24.7488 85.2724C23.4661 85.2724 22.3943 84.9795 21.5333 84.3938C20.6723 83.8022 20.0661 82.9764 19.7147 81.9163C19.3691 80.8503 19.3105 79.6116 19.539 78.2C19.7615 76.8178 20.2096 75.6112 20.8832 74.5804C21.5626 73.5496 22.4118 72.7501 23.431 72.1819C24.4559 71.6138 25.5951 71.3297 26.8485 71.3297C28.1312 71.3297 29.2001 71.6255 30.0552 72.2171C30.9162 72.8086 31.5224 73.6374 31.8738 74.7034C32.2252 75.7694 32.2867 77.011 32.0583 78.4284C31.8358 79.799 31.3818 80.9997 30.6966 82.0305C30.0172 83.0555 29.1679 83.852 28.1488 84.4202C27.1297 84.9883 25.9963 85.2724 24.7488 85.2724ZM24.8981 83.0672C25.7415 83.0672 26.4766 82.8446 27.1033 82.3995C27.7359 81.9544 28.2513 81.3628 28.6495 80.6248C29.0478 79.8868 29.3202 79.0786 29.4666 78.2C29.6013 77.3508 29.5984 76.5747 29.4578 75.8719C29.3231 75.1632 29.0302 74.595 28.5793 74.1675C28.1283 73.7399 27.5016 73.5261 26.6992 73.5261C25.8558 73.5261 25.1148 73.7516 24.4764 74.2026C23.8439 74.6477 23.3285 75.2422 22.9302 75.9861C22.5378 76.7299 22.2713 77.5411 22.1307 78.4197C21.996 79.2631 21.996 80.0391 22.1307 80.7478C22.2654 81.4507 22.5583 82.0129 23.0092 82.4346C23.4602 82.8563 24.0899 83.0672 24.8981 83.0672ZM33.9187 85L36.1677 71.5055H38.6892L38.3202 73.7018H38.4871C38.8971 72.958 39.4535 72.3782 40.1564 71.9623C40.8651 71.5406 41.6675 71.3297 42.5636 71.3297C43.4539 71.3297 44.1713 71.5406 44.716 71.9623C45.2666 72.384 45.6268 72.9639 45.7967 73.7018H45.9372C46.3706 72.9756 46.9768 72.3987 47.7558 71.9711C48.5348 71.5435 49.4104 71.3297 50.3827 71.3297C51.5951 71.3297 52.5264 71.7163 53.1765 72.4894C53.8325 73.2567 54.0316 74.4105 53.7739 75.9509L52.2628 85H49.6271L51.1031 76.1969C51.2495 75.2774 51.109 74.6155 50.6814 74.2114C50.2538 73.8014 49.6945 73.5964 49.0034 73.5964C48.1482 73.5964 47.4395 73.86 46.8773 74.3871C46.315 74.9084 45.9694 75.579 45.8406 76.399L44.391 85H41.7817L43.284 76.03C43.4011 75.292 43.2664 74.7034 42.8799 74.2641C42.4992 73.819 41.9427 73.5964 41.2106 73.5964C40.7128 73.5964 40.2296 73.7282 39.761 73.9918C39.2983 74.2553 38.903 74.6185 38.575 75.0812C38.247 75.5439 38.0332 76.0769 37.9336 76.6801L36.5455 85H33.9187ZM61.5557 85.2724C60.232 85.2724 59.1367 84.9883 58.2699 84.4202C57.4089 83.8462 56.8056 83.0408 56.4601 82.0041C56.1145 80.9616 56.0589 79.7404 56.2931 78.3406C56.5216 76.9583 56.9813 75.7401 57.6725 74.6858C58.3636 73.6316 59.2246 72.8086 60.2554 72.2171C61.2921 71.6255 62.4371 71.3297 63.6905 71.3297C64.452 71.3297 65.1694 71.4557 65.843 71.7075C66.5224 71.9594 67.0993 72.3547 67.5737 72.8936C68.0482 73.4324 68.3762 74.1323 68.5577 74.9933C68.7451 75.8484 68.7393 76.888 68.5401 78.1122L68.3908 79.0434H57.6549L57.9624 77.0755H66.1153C66.2383 76.3843 66.2061 75.7723 66.0187 75.2393C65.8313 74.7005 65.5091 74.2758 65.0523 73.9654C64.6013 73.655 64.0332 73.4998 63.3479 73.4998C62.6451 73.4998 61.9891 73.6843 61.38 74.0533C60.7708 74.4222 60.2613 74.8937 59.8513 75.4677C59.4471 76.0359 59.1924 76.6216 59.0869 77.2248L58.7794 79.0259C58.6272 80.0098 58.6535 80.8005 58.8585 81.3979C59.0694 81.9954 59.4384 82.4288 59.9655 82.6982C60.4926 82.9676 61.1515 83.1023 61.9422 83.1023C62.4518 83.1023 62.9233 83.032 63.3567 82.8915C63.796 82.7451 64.1855 82.5313 64.5252 82.2501C64.8649 81.9631 65.1489 81.6059 65.3774 81.1783L67.7846 81.6264C67.4625 82.3585 66.9998 82.9998 66.3965 83.5504C65.7932 84.0951 65.0816 84.5197 64.2616 84.8243C63.4475 85.123 62.5455 85.2724 61.5557 85.2724Z" fill="#506175"/>
</svg>
