<svg width="181" height="182" viewBox="0 0 181 182" fill="none" xmlns="http://www.w3.org/2000/svg">
<rect x="1.14673" y="0.25" width="179.5" height="181.5" rx="4.75" fill="#ECF3F1"/>
<rect x="1.14673" y="0.25" width="179.5" height="181.5" rx="4.75" stroke="#B0B6B4" stroke-width="0.5"/>
<path d="M90.8973 52.0348L66.1526 73.8558C65.9692 74.0211 65.7348 74.0981 65.5333 74.2351V95.1763C65.5333 95.6568 65.7241 96.1176 66.0639 96.4574C66.4037 96.7971 66.8645 96.988 67.345 96.988H114.45C114.93 96.988 115.391 96.7971 115.731 96.4574C116.07 96.1176 116.261 95.6568 116.261 95.1763V74.2397C116.069 74.1083 115.84 74.0336 115.666 73.8773L90.8973 52.0348ZM101.768 81.5884C101.768 81.8287 101.672 82.0591 101.502 82.229C101.332 82.3989 101.102 82.4943 100.862 82.4943H94.5207V88.8353C94.5207 89.0756 94.4253 89.306 94.2554 89.4758C94.0855 89.6457 93.8551 89.7412 93.6149 89.7412H88.1797C87.9395 89.7412 87.7091 89.6457 87.5392 89.4758C87.3693 89.306 87.2739 89.0756 87.2739 88.8353V82.4943H80.9329C80.6926 82.4943 80.4622 82.3989 80.2923 82.229C80.1224 82.0591 80.027 81.8287 80.027 81.5884V76.1533C80.027 75.913 80.1224 75.6826 80.2923 75.5128C80.4622 75.3429 80.6926 75.2474 80.9329 75.2474H87.2739V68.9064C87.2739 68.6662 87.3693 68.4358 87.5392 68.2659C87.7091 68.096 87.9395 68.0006 88.1797 68.0006H93.6149C93.8551 68.0006 94.0855 68.096 94.2554 68.2659C94.4253 68.4358 94.5207 68.6662 94.5207 68.9064V75.2474H100.862C101.102 75.2474 101.332 75.3429 101.502 75.5128C101.672 75.6826 101.768 75.913 101.768 76.1533V81.5884ZM122.907 65.7676L93.9263 40.1771C93.0968 39.4272 92.0184 39.012 90.9001 39.012C89.7819 39.012 88.7035 39.4272 87.874 40.1771L58.8865 65.7676C58.7095 65.9266 58.5655 66.119 58.4627 66.3336C58.36 66.5483 58.3006 66.7811 58.2879 67.0188C58.2751 67.2564 58.3094 67.4942 58.3886 67.7187C58.4678 67.9431 58.5904 68.1497 58.7495 68.3267L61.1738 71.0239C61.3328 71.2009 61.5252 71.345 61.7398 71.4477C61.9545 71.5504 62.1873 71.6098 62.425 71.6225C62.6626 71.6353 62.9004 71.601 63.1248 71.5218C63.3493 71.4426 63.5559 71.32 63.7329 71.1609L89.6993 48.2563C90.0303 47.9643 90.4565 47.8031 90.8979 47.8031C91.3392 47.8031 91.7654 47.9643 92.0964 48.2563L118.063 71.1598C118.24 71.3188 118.446 71.4415 118.671 71.5207C118.895 71.5999 119.133 71.6341 119.371 71.6214C119.608 71.6087 119.841 71.5493 120.056 71.4465C120.271 71.3438 120.463 71.1998 120.622 71.0227L123.045 68.3256C123.366 67.968 123.532 67.4977 123.506 67.018C123.48 66.5383 123.264 66.0886 122.907 65.7676Z" fill="#506175"/>
<path d="M72.8978 126.988H71.1364C71.0323 126.481 70.85 126.036 70.5896 125.653C70.3339 125.269 70.0214 124.947 69.6521 124.687C69.2875 124.422 68.8826 124.223 68.4376 124.09C67.9925 123.958 67.5285 123.891 67.0455 123.891C66.1648 123.891 65.367 124.114 64.6521 124.559C63.9418 125.004 63.376 125.66 62.9546 126.526C62.5379 127.393 62.3296 128.456 62.3296 129.715C62.3296 130.975 62.5379 132.038 62.9546 132.904C63.376 133.771 63.9418 134.426 64.6521 134.872C65.367 135.317 66.1648 135.539 67.0455 135.539C67.5285 135.539 67.9925 135.473 68.4376 135.34C68.8826 135.208 69.2875 135.011 69.6521 134.751C70.0214 134.486 70.3339 134.161 70.5896 133.778C70.85 133.39 71.0323 132.944 71.1364 132.443H72.8978C72.7652 133.186 72.5237 133.851 72.1734 134.438C71.823 135.025 71.3874 135.525 70.8665 135.937C70.3457 136.344 69.761 136.654 69.1123 136.867C68.4683 137.08 67.7794 137.187 67.0455 137.187C65.805 137.187 64.7018 136.884 63.7359 136.278C62.77 135.672 62.01 134.81 61.456 133.693C60.9021 132.575 60.6251 131.249 60.6251 129.715C60.6251 128.181 60.9021 126.855 61.456 125.738C62.01 124.621 62.77 123.759 63.7359 123.153C64.7018 122.547 65.805 122.244 67.0455 122.244C67.7794 122.244 68.4683 122.35 69.1123 122.563C69.761 122.776 70.3457 123.089 70.8665 123.501C71.3874 123.908 71.823 124.405 72.1734 124.992C72.5237 125.575 72.7652 126.24 72.8978 126.988ZM77.1929 122.443V136.988H75.5168V122.443H77.1929ZM80.2629 136.988V126.079H81.939V136.988H80.2629ZM80.3481 124.602L82.081 121.306H84.0413L81.8254 124.602H80.3481ZM86.6851 130.426V136.988H85.0089V126.079H86.6283V127.783H86.7703C87.026 127.229 87.4142 126.784 87.9351 126.448C88.4559 126.107 89.1283 125.937 89.9521 125.937C90.6908 125.937 91.3371 126.088 91.891 126.391C92.445 126.69 92.8759 127.144 93.1837 127.755C93.4914 128.361 93.6453 129.128 93.6453 130.056V136.988H91.9692V130.17C91.9692 129.313 91.7466 128.645 91.3016 128.167C90.8565 127.684 90.2457 127.443 89.4692 127.443C88.9341 127.443 88.4559 127.559 88.0345 127.791C87.6178 128.023 87.2888 128.361 87.0473 128.806C86.8058 129.251 86.6851 129.791 86.6851 130.426ZM96.7082 136.988V126.079H98.3843V136.988H96.7082ZM97.5604 124.261C97.2337 124.261 96.952 124.149 96.7153 123.927C96.4833 123.704 96.3673 123.437 96.3673 123.124C96.3673 122.812 96.4833 122.544 96.7153 122.322C96.952 122.099 97.2337 121.988 97.5604 121.988C97.8871 121.988 98.1665 122.099 98.3985 122.322C98.6352 122.544 98.7536 122.812 98.7536 123.124C98.7536 123.437 98.6352 123.704 98.3985 123.927C98.1665 124.149 97.8871 124.261 97.5604 124.261ZM105.886 137.215C104.863 137.215 103.983 136.974 103.244 136.491C102.505 136.008 101.937 135.343 101.539 134.495C101.142 133.648 100.943 132.679 100.943 131.59C100.943 130.482 101.146 129.505 101.554 128.657C101.966 127.805 102.539 127.14 103.272 126.661C104.011 126.178 104.873 125.937 105.858 125.937C106.625 125.937 107.316 126.079 107.932 126.363C108.547 126.647 109.051 127.045 109.444 127.556C109.837 128.068 110.081 128.664 110.176 129.346H108.5C108.372 128.849 108.088 128.408 107.647 128.025C107.212 127.637 106.625 127.443 105.886 127.443C105.233 127.443 104.66 127.613 104.167 127.954C103.68 128.29 103.298 128.766 103.024 129.381C102.754 129.992 102.619 130.71 102.619 131.533C102.619 132.376 102.752 133.11 103.017 133.735C103.287 134.36 103.665 134.845 104.153 135.191C104.646 135.537 105.223 135.71 105.886 135.71C106.322 135.71 106.717 135.634 107.072 135.482C107.427 135.331 107.728 135.113 107.974 134.829C108.22 134.545 108.396 134.204 108.5 133.806H110.176C110.081 134.45 109.847 135.03 109.473 135.546C109.103 136.058 108.613 136.465 108.003 136.768C107.396 137.066 106.691 137.215 105.886 137.215ZM115.836 137.244C115.145 137.244 114.518 137.113 113.954 136.853C113.391 136.588 112.943 136.207 112.612 135.71C112.28 135.208 112.115 134.602 112.115 133.891C112.115 133.266 112.238 132.76 112.484 132.372C112.73 131.979 113.059 131.671 113.471 131.448C113.883 131.226 114.338 131.06 114.835 130.951C115.337 130.837 115.841 130.747 116.348 130.681C117.011 130.596 117.548 130.532 117.96 130.489C118.377 130.442 118.68 130.364 118.869 130.255C119.063 130.146 119.16 129.957 119.16 129.687V129.63C119.16 128.929 118.968 128.385 118.585 127.997C118.206 127.608 117.631 127.414 116.859 127.414C116.059 127.414 115.432 127.589 114.977 127.94C114.522 128.29 114.203 128.664 114.018 129.062L112.427 128.494C112.711 127.831 113.09 127.315 113.564 126.945C114.042 126.571 114.563 126.311 115.126 126.164C115.694 126.013 116.253 125.937 116.802 125.937C117.153 125.937 117.555 125.979 118.01 126.065C118.469 126.145 118.912 126.313 119.338 126.569C119.769 126.825 120.126 127.211 120.41 127.727C120.694 128.243 120.836 128.934 120.836 129.801V136.988H119.16V135.511H119.075C118.961 135.747 118.772 136.001 118.507 136.271C118.242 136.541 117.889 136.77 117.449 136.96C117.008 137.149 116.471 137.244 115.836 137.244ZM116.092 135.738C116.755 135.738 117.314 135.608 117.768 135.347C118.227 135.087 118.573 134.751 118.805 134.339C119.042 133.927 119.16 133.494 119.16 133.039V131.505C119.089 131.59 118.933 131.668 118.691 131.739C118.455 131.806 118.18 131.865 117.868 131.917C117.56 131.964 117.259 132.007 116.966 132.045C116.677 132.078 116.442 132.106 116.262 132.13C115.827 132.187 115.42 132.279 115.041 132.407C114.667 132.53 114.364 132.717 114.132 132.968C113.905 133.214 113.791 133.551 113.791 133.977C113.791 134.559 114.006 134.999 114.437 135.298C114.873 135.591 115.424 135.738 116.092 135.738Z" fill="#506175"/>
</svg>
