<svg width="37" height="32" viewBox="0 0 48 32" fill="none" xmlns="http://www.w3.org/2000/svg">
<path d="M35.448 10.6667H33.4786V8.00004C33.4786 4.32004 29.0673 1.33337 23.632 1.33337C18.1966 1.33337 13.7853 4.32004 13.7853 8.00004V10.6667H11.816C9.64972 10.6667 7.87732 11.8667 7.87732 13.3334V26.6667C7.87732 28.1334 9.64972 29.3334 11.816 29.3334H35.448C37.6142 29.3334 39.3866 28.1334 39.3866 26.6667V13.3334C39.3866 11.8667 37.6142 10.6667 35.448 10.6667ZM23.632 22.6667C21.4657 22.6667 19.6933 21.4667 19.6933 20C19.6933 18.5334 21.4657 17.3334 23.632 17.3334C25.7982 17.3334 27.5706 18.5334 27.5706 20C27.5706 21.4667 25.7982 22.6667 23.632 22.6667ZM17.724 10.6667V8.00004C17.724 5.78671 20.3629 4.00004 23.632 4.00004C26.9011 4.00004 29.54 5.78671 29.54 8.00004V10.6667H17.724Z" fill="#506175"/>
</svg>
