<svg width="181" height="180" viewBox="0 0 181 180" fill="none" xmlns="http://www.w3.org/2000/svg">
<rect x="0.353271" y="0.25" width="179.5" height="179.5" rx="4.75" fill="#ECF3F1"/>
<rect x="0.353271" y="0.25" width="179.5" height="179.5" rx="4.75" stroke="#B0B6B4" stroke-width="0.5"/>
<path d="M90.1033 67C98.6254 67 105.532 60.0931 105.532 51.571C105.532 43.0489 98.6254 36.142 90.1033 36.142C81.5812 36.142 74.6743 43.0489 74.6743 51.571C74.6743 60.0931 81.5812 67 90.1033 67ZM100.904 70.8573H98.8906C96.2146 72.0868 93.2373 72.7859 90.1033 72.7859C86.9693 72.7859 84.004 72.0868 81.316 70.8573H79.303C70.359 70.8573 63.1025 78.1137 63.1025 87.0577V92.0721C63.1025 95.2664 65.6941 97.858 68.8884 97.858H111.318C114.512 97.858 117.104 95.2664 117.104 92.0721V87.0577C117.104 78.1137 109.848 70.8573 100.904 70.8573Z" fill="#506175"/>
<path d="M50.8588 137.858V123.313H55.7735C56.9146 123.313 57.8474 123.519 58.5718 123.93C59.301 124.338 59.8408 124.889 60.1912 125.585C60.5415 126.281 60.7167 127.058 60.7167 127.915C60.7167 128.772 60.5415 129.551 60.1912 130.251C59.8455 130.952 59.3105 131.511 58.586 131.928C57.8616 132.34 56.9336 132.546 55.802 132.546H52.2792V130.983H55.7451C56.5264 130.983 57.1538 130.848 57.6272 130.578C58.1007 130.308 58.444 129.944 58.6571 129.484C58.8749 129.02 58.9838 128.497 58.9838 127.915C58.9838 127.332 58.8749 126.812 58.6571 126.352C58.444 125.893 58.0984 125.533 57.6201 125.273C57.1419 125.008 56.5075 124.875 55.7167 124.875H52.6201V137.858H50.8588ZM66.537 138.114C65.8458 138.114 65.2184 137.983 64.6549 137.723C64.0915 137.458 63.6441 137.077 63.3126 136.58C62.9812 136.078 62.8155 135.472 62.8155 134.761C62.8155 134.136 62.9386 133.63 63.1848 133.242C63.431 132.849 63.7601 132.541 64.172 132.318C64.5839 132.096 65.0385 131.93 65.5356 131.821C66.0375 131.707 66.5418 131.617 67.0484 131.551C67.7113 131.466 68.2487 131.402 68.6606 131.359C69.0773 131.312 69.3803 131.234 69.5697 131.125C69.7638 131.016 69.8609 130.827 69.8609 130.557V130.5C69.8609 129.799 69.6691 129.255 69.2856 128.867C68.9068 128.478 68.3316 128.284 67.5598 128.284C66.7596 128.284 66.1322 128.459 65.6777 128.81C65.2231 129.16 64.9035 129.534 64.7189 129.932L63.128 129.364C63.412 128.701 63.7908 128.185 64.2643 127.815C64.7425 127.441 65.2634 127.181 65.8268 127.034C66.395 126.883 66.9537 126.807 67.503 126.807C67.8533 126.807 68.2558 126.849 68.7103 126.935C69.1696 127.015 69.6123 127.183 70.0385 127.439C70.4693 127.695 70.8268 128.081 71.1109 128.597C71.395 129.113 71.537 129.804 71.537 130.671V137.858H69.8609V136.381H69.7757C69.662 136.617 69.4726 136.871 69.2075 137.141C68.9423 137.411 68.5896 137.64 68.1493 137.83C67.7089 138.019 67.1715 138.114 66.537 138.114ZM66.7927 136.608C67.4556 136.608 68.0143 136.478 68.4689 136.217C68.9281 135.957 69.2738 135.621 69.5058 135.209C69.7425 134.797 69.8609 134.364 69.8609 133.909V132.375C69.7899 132.46 69.6336 132.538 69.3922 132.609C69.1554 132.676 68.8808 132.735 68.5683 132.787C68.2605 132.834 67.9599 132.877 67.6663 132.915C67.3775 132.948 67.1431 132.976 66.9632 133C66.5276 133.057 66.1204 133.149 65.7416 133.277C65.3675 133.4 65.0645 133.587 64.8325 133.838C64.6052 134.084 64.4916 134.421 64.4916 134.847C64.4916 135.429 64.707 135.869 65.1379 136.168C65.5735 136.461 66.1251 136.608 66.7927 136.608ZM79.0282 138.085C78.0054 138.085 77.1248 137.844 76.3861 137.361C75.6475 136.878 75.0793 136.213 74.6816 135.365C74.2838 134.518 74.085 133.549 74.085 132.46C74.085 131.352 74.2886 130.375 74.6958 129.527C75.1077 128.675 75.6806 128.01 76.4145 127.531C77.1532 127.048 78.0149 126.807 78.9998 126.807C79.7668 126.807 80.4581 126.949 81.0736 127.233C81.6892 127.517 82.1934 127.915 82.5864 128.426C82.9794 128.938 83.2232 129.534 83.3179 130.216H81.6418C81.514 129.719 81.2299 129.278 80.7895 128.895C80.3539 128.507 79.7668 128.313 79.0282 128.313C78.3748 128.313 77.8018 128.483 77.3094 128.824C76.8217 129.16 76.4406 129.636 76.1659 130.251C75.8961 130.862 75.7611 131.58 75.7611 132.403C75.7611 133.246 75.8937 133.98 76.1588 134.605C76.4287 135.23 76.8075 135.715 77.2952 136.061C77.7876 136.407 78.3653 136.58 79.0282 136.58C79.4638 136.58 79.8591 136.504 80.2142 136.352C80.5694 136.201 80.87 135.983 81.1162 135.699C81.3624 135.415 81.5376 135.074 81.6418 134.676H83.3179C83.2232 135.32 82.9889 135.9 82.6148 136.416C82.2455 136.928 81.7554 137.335 81.1446 137.638C80.5386 137.936 79.8331 138.085 79.0282 138.085ZM85.7682 137.858V126.949H87.4444V137.858H85.7682ZM86.6205 125.131C86.2938 125.131 86.0121 125.019 85.7753 124.797C85.5433 124.574 85.4273 124.307 85.4273 123.994C85.4273 123.682 85.5433 123.414 85.7753 123.192C86.0121 122.969 86.2938 122.858 86.6205 122.858C86.9472 122.858 87.2266 122.969 87.4586 123.192C87.6953 123.414 87.8137 123.682 87.8137 123.994C87.8137 124.307 87.6953 124.574 87.4586 124.797C87.2266 125.019 86.9472 125.131 86.6205 125.131ZM95.0882 138.085C94.037 138.085 93.1303 137.853 92.368 137.389C91.6104 136.921 91.0257 136.267 90.6137 135.429C90.2066 134.586 90.003 133.606 90.003 132.489C90.003 131.371 90.2066 130.386 90.6137 129.534C91.0257 128.677 91.5986 128.01 92.3325 127.531C93.0711 127.048 93.9329 126.807 94.9177 126.807C95.4859 126.807 96.047 126.902 96.601 127.091C97.1549 127.28 97.6592 127.588 98.1137 128.014C98.5683 128.436 98.9305 128.994 99.2004 129.69C99.4703 130.386 99.6052 131.243 99.6052 132.261V132.972H91.1961V131.523H97.9007C97.9007 130.907 97.7776 130.358 97.5314 129.875C97.2899 129.392 96.9442 129.011 96.4944 128.732C96.0494 128.452 95.5238 128.313 94.9177 128.313C94.2501 128.313 93.6725 128.478 93.1848 128.81C92.7018 129.136 92.3301 129.563 92.0697 130.088C91.8093 130.614 91.6791 131.177 91.6791 131.778V132.744C91.6791 133.568 91.8211 134.267 92.1052 134.84C92.3941 135.408 92.7941 135.841 93.3055 136.139C93.8169 136.433 94.4111 136.58 95.0882 136.58C95.5285 136.58 95.9262 136.518 96.2814 136.395C96.6412 136.267 96.9513 136.078 97.2118 135.827C97.4722 135.571 97.6734 135.254 97.8155 134.875L99.4348 135.33C99.2643 135.879 98.9779 136.362 98.5754 136.778C98.1729 137.19 97.6758 137.512 97.0839 137.744C96.4921 137.972 95.8268 138.085 95.0882 138.085ZM103.831 131.296V137.858H102.155V126.949H103.774V128.653H103.916C104.172 128.099 104.56 127.654 105.081 127.318C105.602 126.977 106.274 126.807 107.098 126.807C107.837 126.807 108.483 126.958 109.037 127.261C109.591 127.56 110.022 128.014 110.33 128.625C110.637 129.231 110.791 129.998 110.791 130.926V137.858H109.115V131.04C109.115 130.183 108.893 129.515 108.448 129.037C108.002 128.554 107.392 128.313 106.615 128.313C106.08 128.313 105.602 128.429 105.181 128.661C104.764 128.893 104.435 129.231 104.193 129.676C103.952 130.121 103.831 130.661 103.831 131.296ZM118.598 126.949V128.369H112.945V126.949H118.598ZM114.593 124.335H116.269V134.733C116.269 135.206 116.338 135.562 116.475 135.798C116.617 136.03 116.797 136.187 117.015 136.267C117.237 136.343 117.472 136.381 117.718 136.381C117.902 136.381 118.054 136.371 118.172 136.352C118.291 136.329 118.385 136.31 118.456 136.296L118.797 137.801C118.684 137.844 118.525 137.886 118.321 137.929C118.118 137.976 117.86 138 117.547 138C117.074 138 116.61 137.898 116.155 137.695C115.705 137.491 115.331 137.181 115.033 136.764C114.74 136.348 114.593 135.822 114.593 135.188V124.335ZM125.576 138.085C124.525 138.085 123.619 137.853 122.856 137.389C122.099 136.921 121.514 136.267 121.102 135.429C120.695 134.586 120.491 133.606 120.491 132.489C120.491 131.371 120.695 130.386 121.102 129.534C121.514 128.677 122.087 128.01 122.821 127.531C123.559 127.048 124.421 126.807 125.406 126.807C125.974 126.807 126.535 126.902 127.089 127.091C127.643 127.28 128.147 127.588 128.602 128.014C129.057 128.436 129.419 128.994 129.689 129.69C129.959 130.386 130.094 131.243 130.094 132.261V132.972H121.684V131.523H128.389C128.389 130.907 128.266 130.358 128.02 129.875C127.778 129.392 127.433 129.011 126.983 128.732C126.538 128.452 126.012 128.313 125.406 128.313C124.738 128.313 124.161 128.478 123.673 128.81C123.19 129.136 122.818 129.563 122.558 130.088C122.298 130.614 122.167 131.177 122.167 131.778V132.744C122.167 133.568 122.309 134.267 122.594 134.84C122.882 135.408 123.282 135.841 123.794 136.139C124.305 136.433 124.899 136.58 125.576 136.58C126.017 136.58 126.415 136.518 126.77 136.395C127.129 136.267 127.44 136.078 127.7 135.827C127.96 135.571 128.162 135.254 128.304 134.875L129.923 135.33C129.753 135.879 129.466 136.362 129.064 136.778C128.661 137.19 128.164 137.512 127.572 137.744C126.98 137.972 126.315 138.085 125.576 138.085Z" fill="#506175"/>
</svg>
