<svg width="197" height="20" viewBox="0 0 197 20" fill="none" xmlns="http://www.w3.org/2000/svg">
<path d="M15.6886 7.33047H13.5429C13.416 6.71329 13.1939 6.17109 12.8767 5.70387C12.5652 5.23665 12.1845 4.84442 11.7346 4.52718C11.2905 4.20417 10.7973 3.9619 10.2551 3.8004C9.7129 3.63889 9.14763 3.55814 8.55928 3.55814C7.48641 3.55814 6.51449 3.82924 5.64351 4.37144C4.77829 4.91364 4.089 5.71252 3.57564 6.76808C3.06805 7.82365 2.81426 9.11858 2.81426 10.6529C2.81426 12.1872 3.06805 13.4821 3.57564 14.5377C4.089 15.5933 4.77829 16.3922 5.64351 16.9344C6.51449 17.4766 7.48641 17.7477 8.55928 17.7477C9.14763 17.7477 9.7129 17.6669 10.2551 17.5054C10.7973 17.3439 11.2905 17.1045 11.7346 16.7873C12.1845 16.4643 12.5652 16.0691 12.8767 15.6019C13.1939 15.1289 13.416 14.5867 13.5429 13.9753H15.6886C15.5271 14.8809 15.233 15.6913 14.8061 16.4066C14.3793 17.1218 13.8486 17.7304 13.2141 18.2322C12.5796 18.7282 11.8673 19.106 11.0771 19.3656C10.2926 19.6252 9.45334 19.755 8.55928 19.755C7.04804 19.755 5.70407 19.3858 4.52738 18.6475C3.35069 17.9092 2.42491 16.8594 1.75004 15.4981C1.07517 14.1368 0.73774 12.5218 0.73774 10.6529C0.73774 8.78403 1.07517 7.16897 1.75004 5.8077C2.42491 4.44643 3.35069 3.39663 4.52738 2.65831C5.70407 1.92 7.04804 1.55084 8.55928 1.55084C9.45334 1.55084 10.2926 1.68062 11.0771 1.94019C11.8673 2.19975 12.5796 2.58045 13.2141 3.08227C13.8486 3.57833 14.3793 4.18398 14.8061 4.89922C15.233 5.6087 15.5271 6.41911 15.6886 7.33047ZM24.4511 19.7896C23.1706 19.7896 22.066 19.5069 21.1373 18.9417C20.2144 18.3706 19.5021 17.5746 19.0003 16.5537C18.5042 15.5269 18.2562 14.3329 18.2562 12.9717C18.2562 11.6104 18.5042 10.4106 19.0003 9.37238C19.5021 8.32835 20.2 7.51505 21.0941 6.93247C21.9939 6.34413 23.0437 6.04996 24.2435 6.04996C24.9356 6.04996 25.6191 6.16532 26.294 6.39604C26.9689 6.62677 27.5832 7.00169 28.1369 7.52082C28.6907 8.03418 29.1319 8.71482 29.4607 9.56273C29.7895 10.4106 29.9539 11.4547 29.9539 12.6948V13.56H19.7097V11.795H27.8774C27.8774 11.0451 27.7274 10.376 27.4274 9.78768C27.1333 9.19934 26.7122 8.73501 26.1642 8.39469C25.622 8.05437 24.9818 7.88421 24.2435 7.88421C23.4302 7.88421 22.7264 8.08609 22.1323 8.48986C21.544 8.88786 21.0912 9.40699 20.7739 10.0472C20.4567 10.6875 20.2981 11.3739 20.2981 12.1065V13.2832C20.2981 14.2868 20.4711 15.1376 20.8172 15.8355C21.1691 16.5277 21.6565 17.0555 22.2794 17.4189C22.9024 17.7765 23.6263 17.9553 24.4511 17.9553C24.9875 17.9553 25.4721 17.8803 25.9047 17.7304C26.343 17.5746 26.7209 17.3439 27.0381 17.0382C27.3553 16.7267 27.6005 16.3402 27.7735 15.8788L29.7462 16.4325C29.5386 17.1016 29.1896 17.69 28.6993 18.1976C28.209 18.6994 27.6034 19.0916 26.8824 19.3743C26.1613 19.6511 25.3509 19.7896 24.4511 19.7896ZM35.1019 11.5181V19.5127H33.06V6.223H35.0327V8.29951H35.2057C35.5172 7.62465 35.9902 7.08245 36.6247 6.67291C37.2592 6.25761 38.0782 6.04996 39.0819 6.04996C39.9817 6.04996 40.7691 6.23454 41.4439 6.60369C42.1188 6.96708 42.6437 7.52082 43.0186 8.26491C43.3935 9.00322 43.581 9.93765 43.581 11.0682V19.5127H41.5391V11.2066C41.5391 10.1626 41.268 9.34931 40.7258 8.76673C40.1836 8.17838 39.4395 7.88421 38.4935 7.88421C37.8417 7.88421 37.2592 8.02553 36.7458 8.30817C36.2382 8.5908 35.8373 9.00322 35.5432 9.54542C35.249 10.0876 35.1019 10.7452 35.1019 11.5181ZM53.0919 6.223V7.95343H46.2048V6.223H53.0919ZM48.2121 3.03901H50.254V15.7058C50.254 16.2826 50.3376 16.7152 50.5049 17.0036C50.6779 17.2862 50.8971 17.4766 51.1624 17.5746C51.4335 17.6669 51.7191 17.713 52.019 17.713C52.244 17.713 52.4285 17.7015 52.5727 17.6784C52.7169 17.6496 52.8323 17.6265 52.9188 17.6092L53.3341 19.4435C53.1957 19.4954 53.0025 19.5473 52.7544 19.5992C52.5064 19.6569 52.1921 19.6857 51.8114 19.6857C51.2345 19.6857 50.6693 19.5617 50.1155 19.3137C49.5676 19.0657 49.1119 18.6879 48.7485 18.1803C48.3909 17.6727 48.2121 17.0324 48.2121 16.2595V3.03901ZM56.1634 19.5127V6.223H58.1361V8.2303H58.2745C58.5168 7.57273 58.9551 7.03918 59.5896 6.62965C60.2241 6.22011 60.9394 6.01535 61.7354 6.01535C61.8853 6.01535 62.0728 6.01823 62.2978 6.024C62.5227 6.02977 62.6929 6.03842 62.8082 6.04996V8.12647C62.739 8.10917 62.5804 8.08321 62.3324 8.0486C62.0901 8.00822 61.8334 7.98804 61.5623 7.98804C60.9163 7.98804 60.3395 8.12359 59.8319 8.39469C59.3301 8.66002 58.9321 9.02918 58.6379 9.50216C58.3495 9.96938 58.2053 10.5029 58.2053 11.1028V19.5127H56.1634ZM69.1394 19.8242C68.2973 19.8242 67.533 19.6655 66.8466 19.3483C66.1602 19.0253 65.6151 18.561 65.2114 17.9553C64.8076 17.3439 64.6057 16.6056 64.6057 15.7404C64.6057 14.979 64.7557 14.3618 65.0556 13.8888C65.3556 13.41 65.7565 13.0351 66.2583 12.764C66.7601 12.4929 67.3138 12.291 67.9195 12.1584C68.5309 12.0199 69.1452 11.9103 69.7624 11.8296C70.5699 11.7258 71.2246 11.6479 71.7264 11.596C72.234 11.5383 72.6032 11.4431 72.8339 11.3105C73.0704 11.1778 73.1886 10.9471 73.1886 10.6183V10.5491C73.1886 9.69539 72.955 9.03206 72.4878 8.55908C72.0264 8.08609 71.3256 7.8496 70.3854 7.8496C69.4105 7.8496 68.6463 8.06302 68.0925 8.48986C67.5388 8.9167 67.1494 9.37238 66.9245 9.8569L64.9864 9.16473C65.3325 8.35719 65.7939 7.72847 66.3708 7.27856C66.9533 6.82288 67.5878 6.50564 68.2742 6.32682C68.9664 6.14225 69.647 6.04996 70.3161 6.04996C70.743 6.04996 71.2333 6.10187 71.787 6.20569C72.3465 6.30375 72.8858 6.50852 73.405 6.82C73.9298 7.13147 74.3653 7.60157 74.7114 8.2303C75.0575 8.85902 75.2306 9.70116 75.2306 10.7567V19.5127H73.1886V17.713H73.0848C72.9464 18.0015 72.7157 18.31 72.3927 18.6388C72.0696 18.9676 71.6399 19.2474 71.1035 19.4781C70.567 19.7088 69.9124 19.8242 69.1394 19.8242ZM69.4509 17.9899C70.2585 17.9899 70.9391 17.8313 71.4928 17.514C72.0523 17.1968 72.4734 16.7873 72.756 16.2854C73.0444 15.7836 73.1886 15.2558 73.1886 14.7021V12.8332C73.1021 12.9371 72.9118 13.0322 72.6176 13.1188C72.3292 13.1995 71.9947 13.2716 71.614 13.3351C71.239 13.3927 70.8728 13.4447 70.5151 13.4908C70.1633 13.5312 69.8778 13.5658 69.6586 13.5946C69.1279 13.6638 68.6319 13.7763 68.1704 13.9321C67.7147 14.082 67.3456 14.3099 67.0629 14.6156C66.7861 14.9155 66.6476 15.3251 66.6476 15.8442C66.6476 16.5537 66.9101 17.0901 67.435 17.4535C67.9656 17.8111 68.6376 17.9899 69.4509 17.9899ZM80.9994 1.7931V19.5127H78.9575V1.7931H80.9994ZM96.61 19.7896C95.5025 19.7896 94.5248 19.5098 93.6769 18.9503C92.829 18.385 92.1657 17.589 91.6869 16.5623C91.2082 15.5298 90.9688 14.3099 90.9688 12.9025C90.9688 11.5066 91.2082 10.2953 91.6869 9.26855C92.1657 8.24183 92.8319 7.44872 93.6856 6.88921C94.5393 6.32971 95.5256 6.04996 96.6446 6.04996C97.5098 6.04996 98.1933 6.19416 98.6952 6.48256C99.2028 6.7652 99.5892 7.08821 99.8546 7.4516C100.126 7.80923 100.336 8.1034 100.486 8.33412H100.659V1.7931H102.701V19.5127H100.728V17.4708H100.486C100.336 17.713 100.123 18.0188 99.8459 18.3879C99.569 18.7513 99.1739 19.0772 98.6606 19.3656C98.1472 19.6482 97.4637 19.7896 96.61 19.7896ZM96.8869 17.9553C97.7059 17.9553 98.3981 17.7419 98.9634 17.3151C99.5287 16.8824 99.9584 16.2854 100.253 15.5241C100.547 14.7569 100.694 13.8715 100.694 12.8678C100.694 11.8757 100.55 11.0076 100.261 10.2636C99.9728 9.5137 99.546 8.93112 98.9807 8.51582C98.4154 8.09475 97.7175 7.88421 96.8869 7.88421C96.0217 7.88421 95.3006 8.10628 94.7238 8.55043C94.1528 8.9888 93.7231 9.5858 93.4347 10.3414C93.152 11.0913 93.0107 11.9334 93.0107 12.8678C93.0107 13.8138 93.1549 14.6733 93.4433 15.4462C93.7375 16.2133 94.1701 16.8248 94.7411 17.2804C95.3179 17.7304 96.0332 17.9553 96.8869 17.9553ZM110.635 19.8242C109.793 19.8242 109.029 19.6655 108.342 19.3483C107.656 19.0253 107.111 18.561 106.707 17.9553C106.303 17.3439 106.101 16.6056 106.101 15.7404C106.101 14.979 106.251 14.3618 106.551 13.8888C106.851 13.41 107.252 13.0351 107.754 12.764C108.256 12.4929 108.81 12.291 109.415 12.1584C110.027 12.0199 110.641 11.9103 111.258 11.8296C112.066 11.7258 112.72 11.6479 113.222 11.596C113.73 11.5383 114.099 11.4431 114.33 11.3105C114.566 11.1778 114.684 10.9471 114.684 10.6183V10.5491C114.684 9.69539 114.451 9.03206 113.984 8.55908C113.522 8.08609 112.821 7.8496 111.881 7.8496C110.906 7.8496 110.142 8.06302 109.588 8.48986C109.034 8.9167 108.645 9.37238 108.42 9.8569L106.482 9.16473C106.828 8.35719 107.29 7.72847 107.866 7.27856C108.449 6.82288 109.084 6.50564 109.77 6.32682C110.462 6.14225 111.143 6.04996 111.812 6.04996C112.239 6.04996 112.729 6.10187 113.283 6.20569C113.842 6.30375 114.382 6.50852 114.901 6.82C115.426 7.13147 115.861 7.60157 116.207 8.2303C116.553 8.85902 116.726 9.70116 116.726 10.7567V19.5127H114.684V17.713H114.581C114.442 18.0015 114.211 18.31 113.888 18.6388C113.565 18.9676 113.136 19.2474 112.599 19.4781C112.063 19.7088 111.408 19.8242 110.635 19.8242ZM110.947 17.9899C111.754 17.9899 112.435 17.8313 112.989 17.514C113.548 17.1968 113.969 16.7873 114.252 16.2854C114.54 15.7836 114.684 15.2558 114.684 14.7021V12.8332C114.598 12.9371 114.407 13.0322 114.113 13.1188C113.825 13.1995 113.49 13.2716 113.11 13.3351C112.735 13.3927 112.368 13.4447 112.011 13.4908C111.659 13.5312 111.373 13.5658 111.154 13.5946C110.624 13.6638 110.128 13.7763 109.666 13.9321C109.21 14.082 108.841 14.3099 108.559 14.6156C108.282 14.9155 108.143 15.3251 108.143 15.8442C108.143 16.5537 108.406 17.0901 108.931 17.4535C109.461 17.8111 110.133 17.9899 110.947 17.9899ZM137.273 6.223C137.169 5.34625 136.748 4.66561 136.01 4.18109C135.271 3.69657 134.366 3.45431 133.293 3.45431C132.508 3.45431 131.822 3.58121 131.234 3.83501C130.651 4.0888 130.195 4.43777 129.867 4.88192C129.544 5.32606 129.382 5.83077 129.382 6.39604C129.382 6.86903 129.495 7.27568 129.72 7.61599C129.95 7.95054 130.244 8.2303 130.602 8.45525C130.96 8.67444 131.335 8.85613 131.727 9.00034C132.119 9.13877 132.48 9.25125 132.808 9.33777L134.608 9.82229C135.07 9.94342 135.583 10.1107 136.148 10.3241C136.719 10.5375 137.264 10.8288 137.783 11.198C138.308 11.5614 138.741 12.0286 139.081 12.5996C139.422 13.1707 139.592 13.8715 139.592 14.7021C139.592 15.6596 139.341 16.5248 138.839 17.2977C138.343 18.0707 137.616 18.685 136.659 19.1407C135.707 19.5963 134.55 19.8242 133.189 19.8242C131.92 19.8242 130.821 19.6194 129.893 19.2099C128.97 18.8003 128.243 18.2293 127.712 17.4967C127.187 16.7642 126.89 15.9134 126.821 14.9444H129.036C129.094 15.6135 129.319 16.1672 129.711 16.6056C130.109 17.0382 130.611 17.3612 131.216 17.5746C131.828 17.7823 132.485 17.8861 133.189 17.8861C134.008 17.8861 134.744 17.7534 135.395 17.4881C136.047 17.217 136.563 16.8421 136.944 16.3633C137.325 15.8788 137.515 15.3135 137.515 14.6675C137.515 14.0791 137.351 13.6004 137.022 13.2312C136.693 12.8621 136.261 12.5621 135.724 12.3314C135.188 12.1007 134.608 11.8988 133.985 11.7258L131.805 11.1028C130.42 10.7048 129.324 10.1367 128.517 9.39834C127.709 8.66002 127.306 7.69386 127.306 6.49987C127.306 5.50775 127.574 4.64254 128.11 3.90422C128.653 3.16014 129.379 2.58333 130.291 2.17379C131.208 1.75849 132.232 1.55084 133.362 1.55084C134.504 1.55084 135.519 1.75561 136.408 2.16514C137.296 2.56891 138 3.12265 138.519 3.82635C139.044 4.53006 139.321 5.32894 139.349 6.223H137.273ZM146.754 19.8242C145.911 19.8242 145.147 19.6655 144.461 19.3483C143.774 19.0253 143.229 18.561 142.825 17.9553C142.422 17.3439 142.22 16.6056 142.22 15.7404C142.22 14.979 142.37 14.3618 142.67 13.8888C142.97 13.41 143.371 13.0351 143.872 12.764C144.374 12.4929 144.928 12.291 145.534 12.1584C146.145 12.0199 146.759 11.9103 147.376 11.8296C148.184 11.7258 148.839 11.6479 149.341 11.596C149.848 11.5383 150.217 11.4431 150.448 11.3105C150.684 11.1778 150.803 10.9471 150.803 10.6183V10.5491C150.803 9.69539 150.569 9.03206 150.102 8.55908C149.64 8.08609 148.94 7.8496 147.999 7.8496C147.025 7.8496 146.26 8.06302 145.707 8.48986C145.153 8.9167 144.764 9.37238 144.539 9.8569L142.6 9.16473C142.947 8.35719 143.408 7.72847 143.985 7.27856C144.567 6.82288 145.202 6.50564 145.888 6.32682C146.58 6.14225 147.261 6.04996 147.93 6.04996C148.357 6.04996 148.847 6.10187 149.401 6.20569C149.961 6.30375 150.5 6.50852 151.019 6.82C151.544 7.13147 151.979 7.60157 152.325 8.2303C152.672 8.85902 152.845 9.70116 152.845 10.7567V19.5127H150.803V17.713H150.699C150.56 18.0015 150.33 18.31 150.007 18.6388C149.684 18.9676 149.254 19.2474 148.718 19.4781C148.181 19.7088 147.526 19.8242 146.754 19.8242ZM147.065 17.9899C147.873 17.9899 148.553 17.8313 149.107 17.514C149.666 17.1968 150.087 16.7873 150.37 16.2854C150.659 15.7836 150.803 15.2558 150.803 14.7021V12.8332C150.716 12.9371 150.526 13.0322 150.232 13.1188C149.943 13.1995 149.609 13.2716 149.228 13.3351C148.853 13.3927 148.487 13.4447 148.129 13.4908C147.777 13.5312 147.492 13.5658 147.273 13.5946C146.742 13.6638 146.246 13.7763 145.784 13.9321C145.329 14.082 144.96 14.3099 144.677 14.6156C144.4 14.9155 144.262 15.3251 144.262 15.8442C144.262 16.5537 144.524 17.0901 145.049 17.4535C145.58 17.8111 146.252 17.9899 147.065 17.9899ZM164.947 14.0791V6.223H166.989V19.5127H164.947V17.2631H164.808C164.497 17.938 164.012 18.5119 163.355 18.9849C162.697 19.4521 161.867 19.6857 160.863 19.6857C160.032 19.6857 159.294 19.504 158.648 19.1407C158.002 18.7715 157.494 18.2178 157.125 17.4794C156.756 16.7354 156.572 15.798 156.572 14.6675V6.223H158.613V14.5291C158.613 15.4981 158.885 16.271 159.427 16.8478C159.975 17.4246 160.673 17.713 161.521 17.713C162.028 17.713 162.544 17.5833 163.069 17.3237C163.6 17.0641 164.044 16.6661 164.402 16.1297C164.765 15.5933 164.947 14.9098 164.947 14.0791ZM160.863 4.42335L162.974 0.408757H165.362L162.663 4.42335H160.863ZM175.747 19.7896C174.639 19.7896 173.662 19.5098 172.814 18.9503C171.966 18.385 171.303 17.589 170.824 16.5623C170.345 15.5298 170.106 14.3099 170.106 12.9025C170.106 11.5066 170.345 10.2953 170.824 9.26855C171.303 8.24183 171.969 7.44872 172.822 6.88921C173.676 6.32971 174.662 6.04996 175.781 6.04996C176.647 6.04996 177.33 6.19416 177.832 6.48256C178.34 6.7652 178.726 7.08821 178.991 7.4516C179.263 7.80923 179.473 8.1034 179.623 8.33412H179.796V1.7931H181.838V19.5127H179.865V17.4708H179.623C179.473 17.713 179.26 18.0188 178.983 18.3879C178.706 18.7513 178.311 19.0772 177.797 19.3656C177.284 19.6482 176.601 19.7896 175.747 19.7896ZM176.024 17.9553C176.843 17.9553 177.535 17.7419 178.1 17.3151C178.666 16.8824 179.095 16.2854 179.389 15.5241C179.684 14.7569 179.831 13.8715 179.831 12.8678C179.831 11.8757 179.686 11.0076 179.398 10.2636C179.11 9.5137 178.683 8.93112 178.118 8.51582C177.552 8.09475 176.854 7.88421 176.024 7.88421C175.159 7.88421 174.437 8.10628 173.861 8.55043C173.29 8.9888 172.86 9.5858 172.572 10.3414C172.289 11.0913 172.148 11.9334 172.148 12.8678C172.148 13.8138 172.292 14.6733 172.58 15.4462C172.874 16.2133 173.307 16.8248 173.878 17.2804C174.455 17.7304 175.17 17.9553 176.024 17.9553ZM191.433 19.7896C190.153 19.7896 189.048 19.5069 188.119 18.9417C187.197 18.3706 186.484 17.5746 185.982 16.5537C185.486 15.5269 185.238 14.3329 185.238 12.9717C185.238 11.6104 185.486 10.4106 185.982 9.37238C186.484 8.32835 187.182 7.51505 188.076 6.93247C188.976 6.34413 190.026 6.04996 191.226 6.04996C191.918 6.04996 192.601 6.16532 193.276 6.39604C193.951 6.62677 194.565 7.00169 195.119 7.52082C195.673 8.03418 196.114 8.71482 196.443 9.56273C196.772 10.4106 196.936 11.4547 196.936 12.6948V13.56H186.692V11.795H194.859C194.859 11.0451 194.709 10.376 194.41 9.78768C194.115 9.19934 193.694 8.73501 193.146 8.39469C192.604 8.05437 191.964 7.88421 191.226 7.88421C190.412 7.88421 189.709 8.08609 189.114 8.48986C188.526 8.88786 188.073 9.40699 187.756 10.0472C187.439 10.6875 187.28 11.3739 187.28 12.1065V13.2832C187.28 14.2868 187.453 15.1376 187.799 15.8355C188.151 16.5277 188.639 17.0555 189.262 17.4189C189.884 17.7765 190.608 17.9553 191.433 17.9553C191.97 17.9553 192.454 17.8803 192.887 17.7304C193.325 17.5746 193.703 17.3439 194.02 17.0382C194.337 16.7267 194.583 16.3402 194.756 15.8788L196.728 16.4325C196.521 17.1016 196.172 17.69 195.681 18.1976C195.191 18.6994 194.585 19.0916 193.864 19.3743C193.143 19.6511 192.333 19.7896 191.433 19.7896Z" fill="#FF6B6B"/>
</svg>
