<svg width="27" height="23" viewBox="0 0 27 23" fill="none" xmlns="http://www.w3.org/2000/svg">
<g clip-path="url(#clip0_56_58)">
<path d="M0.837498 11.393C0.836874 13.3098 1.42576 15.1815 2.54553 16.8312L0.730408 22.4677L7.51263 20.9552C9.3885 21.8238 11.4903 22.2789 13.6261 22.279H13.6317C20.6825 22.279 26.422 17.3993 26.425 11.4016C26.4264 8.49523 25.0968 5.76231 22.6811 3.7062C20.2659 1.65028 17.0537 0.51744 13.6312 0.516113C6.5796 0.516113 0.840513 5.39551 0.837602 11.393" fill="url(#paint0_linear_56_58)"/>
<path d="M0.380749 11.3894C0.380022 13.3753 0.990018 15.3138 2.14971 17.0226L0.269501 22.8612L7.29491 21.2945C9.23064 22.1921 11.4101 22.6654 13.6278 22.6661H13.6335C20.9372 22.6661 26.8829 17.6109 26.886 11.3985C26.8873 8.3877 25.5099 5.55654 23.0079 3.42678C20.5056 1.29728 17.1786 0.123675 13.6335 0.122437C6.3285 0.122437 0.383661 5.17692 0.380749 11.3894ZM4.56464 16.7283L4.30232 16.3742C3.1996 14.8829 2.61758 13.1597 2.61841 11.3902C2.6207 6.22646 7.5618 2.02538 13.6376 2.02538C16.58 2.02645 19.3452 3.00197 21.4251 4.77193C23.5048 6.54206 24.6492 8.8951 24.6485 11.3978C24.6458 16.5615 19.7045 20.7631 13.6335 20.7631H13.6291C11.6523 20.7622 9.71358 20.3107 8.02281 19.4574L7.62044 19.2545L3.45142 20.1841L4.56464 16.7283Z" fill="url(#paint1_linear_56_58)"/>
<path d="M10.3212 6.6792C10.0732 6.21027 9.8121 6.20081 9.57619 6.19259C9.38301 6.18551 9.16218 6.18604 8.94155 6.18604C8.72072 6.18604 8.36192 6.2567 8.05863 6.53834C7.75504 6.82024 6.89957 7.50148 6.89957 8.88705C6.89957 10.2727 8.08619 11.6117 8.2516 11.7998C8.41723 11.9876 10.5424 14.9219 13.9081 16.0508C16.7054 16.9889 17.2746 16.8023 17.8817 16.7553C18.4889 16.7084 19.8409 16.0742 20.1167 15.4166C20.3928 14.759 20.3928 14.1954 20.31 14.0776C20.2273 13.9603 20.0064 13.8898 19.6753 13.749C19.344 13.6082 17.7161 12.9268 17.4126 12.8328C17.109 12.7389 16.8882 12.6921 16.6674 12.9741C16.4466 13.2556 15.8125 13.8898 15.6192 14.0776C15.4261 14.2659 15.2328 14.2893 14.9018 14.1484C14.5704 14.0071 13.504 13.7101 12.2388 12.7508C11.2544 12.0043 10.5898 11.0824 10.3966 10.8004C10.2034 10.5189 10.3759 10.3663 10.542 10.2259C10.6908 10.0997 10.8732 9.89706 11.039 9.73267C11.2041 9.5682 11.2592 9.45086 11.3696 9.26304C11.4801 9.07504 11.4248 8.91057 11.3421 8.7697C11.2592 8.62884 10.6157 7.23603 10.3212 6.6792Z" fill="white"/>
</g>
<defs>
<linearGradient id="paint0_linear_56_58" x1="1285.46" y1="2195.67" x2="1285.46" y2="0.516113" gradientUnits="userSpaceOnUse">
<stop stop-color="#12B3B9"/>
<stop offset="1" stop-color="#60D669"/>
</linearGradient>
<linearGradient id="paint1_linear_56_58" x1="1331.1" y1="2274" x2="1331.1" y2="0.122437" gradientUnits="userSpaceOnUse">
<stop stop-color="#F9F9F9"/>
<stop offset="1" stop-color="white"/>
</linearGradient>
<clipPath id="clip0_56_58">
<rect width="26.6165" height="22.8142" fill="white" transform="translate(0.269501 0.122437)"/>
</clipPath>
</defs>
</svg>
